<svg xmlns="http://www.w3.org/2000/svg" viewBox="0 0 1440 960" fill="none"><defs><linearGradient id="sky" x2="1" y2="1"><stop stop-color="#e9e5d7"/><stop offset=".55" stop-color="#fff9e7"/><stop offset="1" stop-color="#c2d5da"/></linearGradient><radialGradient id="glow"><stop stop-color="#fff" stop-opacity=".45"/><stop offset="1" stop-color="#fff" stop-opacity="0"/></radialGradient></defs><path fill="url(#sky)" d="M0 0h1440v960H0z"/><g stroke="#5b93bd" opacity=".32" stroke-width="2"><path d="M0 0h1440M0 0v960"/><path d="M0 55h1440M80 0v960"/><path d="M0 110h1440M160 0v960"/><path d="M0 165h1440M240 0v960"/><path d="M0 220h1440M320 0v960"/><path d="M0 275h1440M400 0v960"/><path d="M0 330h1440M480 0v960"/><path d="M0 385h1440M560 0v960"/><path d="M0 440h1440M640 0v960"/><path d="M0 495h1440M720 0v960"/><path d="M0 550h1440M800 0v960"/><path d="M0 605h1440M880 0v960"/><path d="M0 660h1440M960 0v960"/><path d="M0 715h1440M1040 0v960"/><path d="M0 770h1440M1120 0v960"/><path d="M0 825h1440M1200 0v960"/><path d="M0 880h1440M1280 0v960"/><path d="M0 935h1440M1360 0v960"/></g><path d="M100 780C200 100 700 170 790 540S1200 730 1290 210" stroke="#216ca6" stroke-width="5" stroke-dasharray="12 16"/><circle cx="100" cy="780" r="25" fill="#fff"/><circle cx="100" cy="780" r="11" fill="#226daf"/><circle cx="790" cy="540" r="25" fill="#fff"/><circle cx="790" cy="540" r="11" fill="#226daf"/><circle cx="1290" cy="210" r="25" fill="#fff"/><circle cx="1290" cy="210" r="11" fill="#226daf"/><path d="M0 0h340v960H0Z" fill="#142e4d"/><path d="M365 0v960" stroke="#ca7844" stroke-width="4" stroke-dasharray="14 14"/><g transform="translate(165 300) rotate(25) scale(1.5)"><path d="m0-60 12 43 65 36v14L12 12 8 53 28 65v9L0 67-28 74v-9l20-12-4-41-65 21V19l65-36Z" fill="#fff4de"/></g><circle cx="950" cy="480" r="195" stroke="#1e526e" stroke-width="4" opacity=".3"/><circle cx="950" cy="480" r="165" stroke="#1e526e" stroke-width="2" stroke-dasharray="5 12" opacity=".3"/></svg>