<svg xmlns="http://www.w3.org/2000/svg" viewBox="0 0 1440 960" fill="none">
  <defs>
    <radialGradient id="space" cx=".5" cy=".35" r="1">
      <stop stop-color="#0c2233"/>
      <stop offset="1" stop-color="#071019"/>
    </radialGradient>
    <radialGradient id="globe" cx=".38" cy=".32" r="1">
      <stop stop-color="#12517a"/>
      <stop offset=".6" stop-color="#0d3350"/>
      <stop offset="1" stop-color="#081d30"/>
    </radialGradient>
    <radialGradient id="rim">
      <stop stop-color="#22d3ee" stop-opacity="0" offset=".82"/>
      <stop offset="1" stop-color="#22d3ee" stop-opacity=".5"/>
    </radialGradient>
    <linearGradient id="arc" x2="1" y2="0">
      <stop stop-color="#22d3ee"/>
      <stop offset="1" stop-color="#3b82f6"/>
    </linearGradient>
  </defs>
  <rect width="1440" height="960" fill="url(#space)"/>
  <g fill="#9fd8ea">
    <circle cx="140" cy="140" r="2" opacity=".6"/>
    <circle cx="320" cy="80" r="1.5" opacity=".5"/>
    <circle cx="520" cy="180" r="2" opacity=".4"/>
    <circle cx="1240" cy="120" r="2" opacity=".55"/>
    <circle cx="1380" cy="300" r="1.5" opacity=".5"/>
    <circle cx="90" cy="620" r="1.5" opacity=".5"/>
    <circle cx="1340" cy="720" r="2" opacity=".45"/>
    <circle cx="240" cy="840" r="1.5" opacity=".4"/>
    <circle cx="1160" cy="880" r="1.5" opacity=".4"/>
    <circle cx="680" cy="90" r="1.5" opacity=".45"/>
  </g>
  <!-- Dashed data ring -->
  <circle cx="720" cy="470" r="330" stroke="#22d3ee" stroke-opacity=".18" stroke-width="1.5" stroke-dasharray="4 10"/>
  <!-- Orbit -->
  <ellipse cx="720" cy="470" rx="430" ry="150" stroke="#3b82f6" stroke-opacity=".3" stroke-width="1.5" stroke-dasharray="2 8" transform="rotate(-14 720 470)"/>
  <circle cx="330" cy="352" r="7" fill="#67e3f7"/>
  <circle cx="330" cy="352" r="13" stroke="#67e3f7" stroke-opacity=".4" stroke-width="2"/>
  <!-- Globe -->
  <circle cx="720" cy="470" r="262" fill="url(#globe)"/>
  <circle cx="720" cy="470" r="262" fill="url(#rim)"/>
  <circle cx="720" cy="470" r="262" stroke="#22d3ee" stroke-opacity=".55" stroke-width="2.5"/>
  <!-- Graticule -->
  <g stroke="#22d3ee" stroke-opacity=".28" stroke-width="1.5">
    <ellipse cx="720" cy="470" rx="262" ry="88"/>
    <ellipse cx="720" cy="470" rx="262" ry="180"/>
    <path d="M458 470h524"/>
    <ellipse cx="720" cy="470" rx="88" ry="262"/>
    <ellipse cx="720" cy="470" rx="180" ry="262"/>
    <path d="M720 208v524"/>
  </g>
  <!-- Abstract continents -->
  <g fill="#2a7ba6" opacity=".5">
    <path d="M560 380q40-30 90-18 30 10 24 40-8 34-50 42-46 8-64-22-14-28 0-42Z"/>
    <path d="M700 560q36-18 74 0 30 14 18 48-14 36-56 34-38-2-44-36-4-32 8-46Z"/>
    <path d="M860 350q30-12 58 4 22 14 8 40-16 28-48 22-28-6-30-34-2-24 12-32Z"/>
    <path d="M880 560q26-8 48 8 16 14 4 36-14 24-40 18-24-6-26-30-2-22 14-32Z"/>
  </g>
  <!-- City nodes -->
  <g>
    <circle cx="590" cy="400" r="6" fill="#a5f3fc"/>
    <circle cx="590" cy="400" r="12" stroke="#a5f3fc" stroke-opacity=".5" stroke-width="2"/>
    <circle cx="740" cy="330" r="6" fill="#a5f3fc"/>
    <circle cx="740" cy="330" r="12" stroke="#a5f3fc" stroke-opacity=".5" stroke-width="2"/>
    <circle cx="900" cy="430" r="6" fill="#a5f3fc"/>
    <circle cx="900" cy="430" r="12" stroke="#a5f3fc" stroke-opacity=".5" stroke-width="2"/>
    <circle cx="640" cy="620" r="6" fill="#a5f3fc"/>
    <circle cx="640" cy="620" r="12" stroke="#a5f3fc" stroke-opacity=".5" stroke-width="2"/>
    <circle cx="860" cy="600" r="6" fill="#a5f3fc"/>
    <circle cx="860" cy="600" r="12" stroke="#a5f3fc" stroke-opacity=".5" stroke-width="2"/>
  </g>
  <!-- Connection arcs -->
  <g stroke="url(#arc)" stroke-width="2.5" fill="none">
    <path d="M590 400Q660 300 740 330" opacity=".9"/>
    <path d="M740 330Q830 330 900 430" opacity=".9"/>
    <path d="M590 400Q600 520 640 620" opacity=".75"/>
    <path d="M640 620Q750 660 860 600" opacity=".9"/>
    <path d="M900 430Q910 520 860 600" opacity=".75"/>
    <path d="M590 400Q760 560 900 430" opacity=".35" stroke-dasharray="4 7"/>
  </g>
  <!-- Signal pulses on arcs -->
  <g fill="#e0fbff">
    <circle cx="662" cy="352" r="4"/>
    <circle cx="830" cy="372" r="4"/>
    <circle cx="750" cy="644" r="4"/>
  </g>
</svg>
