<svg xmlns="http://www.w3.org/2000/svg" viewBox="0 0 1440 960" fill="none"><defs><linearGradient id="sky" x2="1" y2="1"><stop stop-color="#49387f"/><stop offset=".55" stop-color="#cf8ed2"/><stop offset="1" stop-color="#72cfd4"/></linearGradient><radialGradient id="glow"><stop stop-color="#fff" stop-opacity=".45"/><stop offset="1" stop-color="#fff" stop-opacity="0"/></radialGradient></defs><path fill="url(#sky)" d="M0 0h1440v960H0z"/><circle cx="1050" cy="240" r="140" fill="#fce3ce" opacity=".8"/><path d="M-50 490C200 340 400 620 720 490S1150 310 1500 460V980H-50Z" fill="#a786cc"/><path d="M-50 610C200 460 400 740 720 610S1150 430 1500 580V980H-50Z" fill="#8b97d2"/><path d="M-50 740C200 590 400 870 720 740S1150 560 1500 710V980H-50Z" fill="#818fba"/><path d="M-50 860C200 710 400 990 720 860S1150 680 1500 830V980H-50Z" fill="#446d89"/><g fill="#c3a9eb" stroke="#eeccfc" stroke-width="3"><path d="M580 770V500h85v270m100 0V420h95v350m-180 0V590h90v180"/><path d="m558 500 64-110 64 110m55-80 72-150 72 150M660 590l70-105 65 105" fill="#827ad0"/><path d="M711 770v-70q20-40 40 0v70" fill="#715993"/></g><circle cx="464" cy="379" r="3" fill="#fff" opacity="0.32"/><circle cx="89" cy="87" r="1.5" fill="#fff" opacity="0.39"/><circle cx="1037" cy="214" r="3" fill="#fff" opacity="0.60"/><circle cx="940" cy="499" r="3" fill="#fff" opacity="0.46"/><circle cx="1173" cy="196" r="3" fill="#fff" opacity="0.30"/><circle cx="479" cy="777" r="1" fill="#fff" opacity="0.64"/><circle cx="1065" cy="417" r="3" fill="#fff" opacity="0.75"/><circle cx="776" cy="743" r="1" fill="#fff" opacity="0.61"/><circle cx="198" cy="833" r="1" fill="#fff" opacity="0.46"/><circle cx="772" cy="110" r="1" fill="#fff" opacity="0.44"/><circle cx="1415" cy="88" r="3" fill="#fff" opacity="0.75"/><circle cx="1058" cy="923" r="1.5" fill="#fff" opacity="0.57"/><circle cx="291" cy="621" r="1" fill="#fff" opacity="0.55"/><circle cx="76" cy="500" r="1.5" fill="#fff" opacity="0.33"/><circle cx="1185" cy="467" r="3" fill="#fff" opacity="0.41"/><circle cx="730" cy="875" r="3" fill="#fff" opacity="0.32"/><circle cx="1231" cy="99" r="2" fill="#fff" opacity="0.64"/><circle cx="1318" cy="863" r="3" fill="#fff" opacity="0.53"/><circle cx="404" cy="316" r="1.5" fill="#fff" opacity="0.45"/><circle cx="582" cy="522" r="1" fill="#fff" opacity="0.69"/><circle cx="1039" cy="934" r="1.5" fill="#fff" opacity="0.44"/><circle cx="24" cy="302" r="2" fill="#fff" opacity="0.37"/><circle cx="68" cy="433" r="2" fill="#fff" opacity="0.46"/><circle cx="853" cy="179" r="3" fill="#fff" opacity="0.31"/><circle cx="1358" cy="872" r="1" fill="#fff" opacity="0.36"/><circle cx="329" cy="307" r="1" fill="#fff" opacity="0.26"/><circle cx="779" cy="350" r="1.5" fill="#fff" opacity="0.56"/><circle cx="474" cy="142" r="3" fill="#fff" opacity="0.56"/><circle cx="833" cy="427" r="1" fill="#fff" opacity="0.57"/><circle cx="591" cy="734" r="1" fill="#fff" opacity="0.27"/><circle cx="1358" cy="109" r="2" fill="#fff" opacity="0.33"/><circle cx="1034" cy="499" r="1.5" fill="#fff" opacity="0.79"/><circle cx="128" cy="194" r="1" fill="#fff" opacity="0.75"/><circle cx="697" cy="395" r="1" fill="#fff" opacity="0.66"/><circle cx="719" cy="333" r="2" fill="#fff" opacity="0.25"/><circle cx="1021" cy="215" r="1" fill="#fff" opacity="0.73"/><circle cx="67" cy="904" r="1.5" fill="#fff" opacity="0.35"/><circle cx="882" cy="452" r="1" fill="#fff" opacity="0.30"/><circle cx="1239" cy="229" r="3" fill="#fff" opacity="0.70"/><circle cx="316" cy="390" r="1" fill="#fff" opacity="0.31"/><circle cx="927" cy="663" r="1.5" fill="#fff" opacity="0.65"/><circle cx="1053" cy="742" r="1" fill="#fff" opacity="0.64"/><circle cx="965" cy="577" r="3" fill="#fff" opacity="0.70"/><circle cx="932" cy="230" r="1" fill="#fff" opacity="0.36"/><circle cx="913" cy="114" r="1" fill="#fff" opacity="0.37"/><circle cx="9" cy="725" r="1" fill="#fff" opacity="0.61"/><circle cx="885" cy="540" r="1" fill="#fff" opacity="0.79"/><circle cx="1229" cy="514" r="1.5" fill="#fff" opacity="0.53"/><circle cx="663" cy="538" r="3" fill="#fff" opacity="0.66"/><circle cx="1325" cy="200" r="1" fill="#fff" opacity="0.41"/><circle cx="607" cy="930" r="1" fill="#fff" opacity="0.66"/><circle cx="825" cy="229" r="2" fill="#fff" opacity="0.29"/><circle cx="859" cy="762" r="2" fill="#fff" opacity="0.69"/><circle cx="657" cy="528" r="2" fill="#fff" opacity="0.59"/><circle cx="730" cy="802" r="2" fill="#fff" opacity="0.61"/><circle cx="223" cy="200" r="3" fill="#fff" opacity="0.45"/><circle cx="1198" cy="867" r="2" fill="#fff" opacity="0.36"/><circle cx="813" cy="627" r="3" fill="#fff" opacity="0.71"/><circle cx="1401" cy="536" r="2" fill="#fff" opacity="0.70"/><circle cx="1238" cy="599" r="2" fill="#fff" opacity="0.62"/><circle cx="401" cy="501" r="1" fill="#fff" opacity="0.40"/><circle cx="140" cy="510" r="2" fill="#fff" opacity="0.79"/><circle cx="239" cy="639" r="2" fill="#fff" opacity="0.79"/><circle cx="561" cy="823" r="2" fill="#fff" opacity="0.40"/><circle cx="1294" cy="421" r="1.5" fill="#fff" opacity="0.45"/><circle cx="507" cy="809" r="3" fill="#fff" opacity="0.39"/><circle cx="1221" cy="537" r="1.5" fill="#fff" opacity="0.45"/><circle cx="216" cy="812" r="1" fill="#fff" opacity="0.46"/><circle cx="1340" cy="174" r="3" fill="#fff" opacity="0.76"/><circle cx="280" cy="22" r="1.5" fill="#fff" opacity="0.63"/><circle cx="178" cy="97" r="3" fill="#fff" opacity="0.50"/><circle cx="1370" cy="927" r="2" fill="#fff" opacity="0.76"/><circle cx="189" cy="129" r="2" fill="#fff" opacity="0.73"/><circle cx="1336" cy="67" r="2" fill="#fff" opacity="0.68"/><circle cx="171" cy="879" r="1.5" fill="#fff" opacity="0.61"/><circle cx="750" cy="848" r="1" fill="#fff" opacity="0.70"/><circle cx="75" cy="614" r="2" fill="#fff" opacity="0.37"/><circle cx="732" cy="334" r="1" fill="#fff" opacity="0.54"/><circle cx="233" cy="938" r="2" fill="#fff" opacity="0.49"/><circle cx="321" cy="261" r="3" fill="#fff" opacity="0.33"/><circle cx="133" cy="102" r="1.5" fill="#fff" opacity="0.30"/><circle cx="361" cy="345" r="1.5" fill="#fff" opacity="0.31"/><circle cx="104" cy="58" r="1.5" fill="#fff" opacity="0.70"/><circle cx="1145" cy="654" r="2" fill="#fff" opacity="0.41"/><circle cx="496" cy="753" r="3" fill="#fff" opacity="0.31"/><circle cx="169" cy="140" r="1.5" fill="#fff" opacity="0.37"/><circle cx="446" cy="417" r="1.5" fill="#fff" opacity="0.34"/><circle cx="901" cy="62" r="3" fill="#fff" opacity="0.57"/><circle cx="1256" cy="294" r="3" fill="#fff" opacity="0.70"/><circle cx="894" cy="592" r="2" fill="#fff" opacity="0.63"/><circle cx="1002" cy="889" r="2" fill="#fff" opacity="0.65"/><circle cx="1081" cy="191" r="2" fill="#fff" opacity="0.40"/><circle cx="974" cy="853" r="1.5" fill="#fff" opacity="0.71"/><circle cx="567" cy="511" r="2" fill="#fff" opacity="0.69"/><circle cx="1164" cy="539" r="3" fill="#fff" opacity="0.67"/><circle cx="1000" cy="662" r="3" fill="#fff" opacity="0.32"/><circle cx="807" cy="32" r="1" fill="#fff" opacity="0.73"/><circle cx="1037" cy="303" r="2" fill="#fff" opacity="0.46"/><circle cx="56" cy="636" r="1.5" fill="#fff" opacity="0.71"/><circle cx="29" cy="81" r="1.5" fill="#fff" opacity="0.50"/><circle cx="260" cy="786" r="3" fill="#fff" opacity="0.56"/><circle cx="1185" cy="898" r="1" fill="#fff" opacity="0.45"/><circle cx="1028" cy="40" r="2" fill="#fff" opacity="0.79"/><circle cx="733" cy="108" r="2" fill="#fff" opacity="0.61"/><circle cx="976" cy="863" r="1.5" fill="#fff" opacity="0.61"/><circle cx="976" cy="373" r="2" fill="#fff" opacity="0.76"/><circle cx="879" cy="383" r="1" fill="#fff" opacity="0.65"/><circle cx="1357" cy="911" r="2" fill="#fff" opacity="0.28"/><circle cx="476" cy="522" r="2" fill="#fff" opacity="0.52"/><circle cx="974" cy="574" r="1.5" fill="#fff" opacity="0.42"/><circle cx="1325" cy="272" r="1" fill="#fff" opacity="0.68"/><circle cx="589" cy="598" r="2" fill="#fff" opacity="0.50"/><circle cx="607" cy="296" r="3" fill="#fff" opacity="0.72"/><circle cx="915" cy="672" r="1" fill="#fff" opacity="0.52"/><circle cx="1339" cy="449" r="2" fill="#fff" opacity="0.32"/><circle cx="221" cy="370" r="3" fill="#fff" opacity="0.45"/><circle cx="1173" cy="392" r="1.5" fill="#fff" opacity="0.55"/><circle cx="1208" cy="177" r="1.5" fill="#fff" opacity="0.53"/><circle cx="70" cy="90" r="2" fill="#fff" opacity="0.37"/><circle cx="1302" cy="410" r="2" fill="#fff" opacity="0.77"/><circle cx="404" cy="118" r="1" fill="#fff" opacity="0.27"/><circle cx="433" cy="324" r="2" fill="#fff" opacity="0.27"/><circle cx="11" cy="753" r="1" fill="#fff" opacity="0.66"/><circle cx="1179" cy="309" r="2" fill="#fff" opacity="0.26"/><circle cx="437" cy="336" r="2" fill="#fff" opacity="0.72"/><circle cx="848" cy="240" r="1" fill="#fff" opacity="0.73"/><circle cx="1395" cy="98" r="1.5" fill="#fff" opacity="0.51"/><circle cx="863" cy="927" r="1" fill="#fff" opacity="0.48"/><circle cx="302" cy="76" r="1.5" fill="#fff" opacity="0.61"/><circle cx="1361" cy="722" r="2" fill="#fff" opacity="0.76"/><circle cx="893" cy="672" r="1" fill="#fff" opacity="0.39"/><circle cx="1421" cy="679" r="1.5" fill="#fff" opacity="0.79"/><circle cx="583" cy="65" r="3" fill="#fff" opacity="0.42"/><circle cx="330" cy="230" r="1" fill="#fff" opacity="0.47"/><circle cx="1419" cy="316" r="2" fill="#fff" opacity="0.42"/><circle cx="566" cy="617" r="1" fill="#fff" opacity="0.47"/><circle cx="426" cy="720" r="1.5" fill="#fff" opacity="0.35"/><circle cx="1341" cy="887" r="3" fill="#fff" opacity="0.34"/><circle cx="644" cy="244" r="1" fill="#fff" opacity="0.49"/><circle cx="1036" cy="844" r="3" fill="#fff" opacity="0.75"/><path d="M160 244Q160 280 178 280Q160 280 160 316Q160 280 142 280Q160 280 160 244" fill="#ffe3af"/><path d="M460 134Q460 170 478 170Q460 170 460 206Q460 170 442 170Q460 170 460 134" fill="#ffe3af"/><path d="M1110 594Q1110 630 1128 630Q1110 630 1110 666Q1110 630 1092 630Q1110 630 1110 594" fill="#ffe3af"/><path d="M900 94Q900 130 918 130Q900 130 900 166Q900 130 882 130Q900 130 900 94" fill="#ffe3af"/></svg>