<svg xmlns="http://www.w3.org/2000/svg" viewBox="0 0 1440 960" fill="none"><defs><linearGradient id="sky" x2="1" y2="1"><stop stop-color="#e7ebcc"/><stop offset=".55" stop-color="#a5c7a6"/><stop offset="1" stop-color="#467a66"/></linearGradient><radialGradient id="glow"><stop stop-color="#fff" stop-opacity=".45"/><stop offset="1" stop-color="#fff" stop-opacity="0"/></radialGradient></defs><path fill="url(#sky)" d="M0 0h1440v960H0z"/><g transform="translate(0 140) rotate(30) scale(2)"><path d="M0 150V-100" stroke="#4c7a53" stroke-width="4"/><path d="M0 -80Q-90 -160-90 -90Q-70 -50 0 -55M0 -80Q90 -160 90 -90Q70 -50 0 -55" fill="#527e5f" opacity=".6"/><path d="M0 -40Q-90 -120-90 -50Q-70 -10 0 -15M0 -40Q90 -120 90 -50Q70 -10 0 -15" fill="#527e5f" opacity=".6"/><path d="M0 0Q-90 -80-90 -10Q-70 30 0 25M0 0Q90 -80 90 -10Q70 30 0 25" fill="#527e5f" opacity=".6"/><path d="M0 40Q-90 -40-90 30Q-70 70 0 65M0 40Q90 -40 90 30Q70 70 0 65" fill="#527e5f" opacity=".6"/><path d="M0 80Q-90 0-90 70Q-70 110 0 105M0 80Q90 0 90 70Q70 110 0 105" fill="#527e5f" opacity=".6"/><path d="M0 120Q-90 40-90 110Q-70 150 0 145M0 120Q90 40 90 110Q70 150 0 145" fill="#527e5f" opacity=".6"/></g><g transform="translate(1320 120) rotate(-35) scale(2)"><path d="M0 150V-100" stroke="#4c7a53" stroke-width="4"/><path d="M0 -80Q-90 -160-90 -90Q-70 -50 0 -55M0 -80Q90 -160 90 -90Q70 -50 0 -55" fill="#527e5f" opacity=".6"/><path d="M0 -40Q-90 -120-90 -50Q-70 -10 0 -15M0 -40Q90 -120 90 -50Q70 -10 0 -15" fill="#527e5f" opacity=".6"/><path d="M0 0Q-90 -80-90 -10Q-70 30 0 25M0 0Q90 -80 90 -10Q70 30 0 25" fill="#527e5f" opacity=".6"/><path d="M0 40Q-90 -40-90 30Q-70 70 0 65M0 40Q90 -40 90 30Q70 70 0 65" fill="#527e5f" opacity=".6"/><path d="M0 80Q-90 0-90 70Q-70 110 0 105M0 80Q90 0 90 70Q70 110 0 105" fill="#527e5f" opacity=".6"/><path d="M0 120Q-90 40-90 110Q-70 150 0 145M0 120Q90 40 90 110Q70 150 0 145" fill="#527e5f" opacity=".6"/></g><g transform="translate(120 820) rotate(-20) scale(2.5)"><path d="M0 150V-100" stroke="#4c7a53" stroke-width="4"/><path d="M0 -80Q-90 -160-90 -90Q-70 -50 0 -55M0 -80Q90 -160 90 -90Q70 -50 0 -55" fill="#527e5f" opacity=".6"/><path d="M0 -40Q-90 -120-90 -50Q-70 -10 0 -15M0 -40Q90 -120 90 -50Q70 -10 0 -15" fill="#527e5f" opacity=".6"/><path d="M0 0Q-90 -80-90 -10Q-70 30 0 25M0 0Q90 -80 90 -10Q70 30 0 25" fill="#527e5f" opacity=".6"/><path d="M0 40Q-90 -40-90 30Q-70 70 0 65M0 40Q90 -40 90 30Q70 70 0 65" fill="#527e5f" opacity=".6"/><path d="M0 80Q-90 0-90 70Q-70 110 0 105M0 80Q90 0 90 70Q70 110 0 105" fill="#527e5f" opacity=".6"/><path d="M0 120Q-90 40-90 110Q-70 150 0 145M0 120Q90 40 90 110Q70 150 0 145" fill="#527e5f" opacity=".6"/></g><g transform="translate(1170 790) rotate(30) scale(2.4)"><path d="M0 150V-100" stroke="#4c7a53" stroke-width="4"/><path d="M0 -80Q-90 -160-90 -90Q-70 -50 0 -55M0 -80Q90 -160 90 -90Q70 -50 0 -55" fill="#527e5f" opacity=".6"/><path d="M0 -40Q-90 -120-90 -50Q-70 -10 0 -15M0 -40Q90 -120 90 -50Q70 -10 0 -15" fill="#527e5f" opacity=".6"/><path d="M0 0Q-90 -80-90 -10Q-70 30 0 25M0 0Q90 -80 90 -10Q70 30 0 25" fill="#527e5f" opacity=".6"/><path d="M0 40Q-90 -40-90 30Q-70 70 0 65M0 40Q90 -40 90 30Q70 70 0 65" fill="#527e5f" opacity=".6"/><path d="M0 80Q-90 0-90 70Q-70 110 0 105M0 80Q90 0 90 70Q70 110 0 105" fill="#527e5f" opacity=".6"/><path d="M0 120Q-90 40-90 110Q-70 150 0 145M0 120Q90 40 90 110Q70 150 0 145" fill="#527e5f" opacity=".6"/></g><g transform="translate(500 300) rotate(-40) scale(1.6)"><path d="M0 150V-100" stroke="#4c7a53" stroke-width="4"/><path d="M0 -80Q-90 -160-90 -90Q-70 -50 0 -55M0 -80Q90 -160 90 -90Q70 -50 0 -55" fill="#527e5f" opacity=".6"/><path d="M0 -40Q-90 -120-90 -50Q-70 -10 0 -15M0 -40Q90 -120 90 -50Q70 -10 0 -15" fill="#527e5f" opacity=".6"/><path d="M0 0Q-90 -80-90 -10Q-70 30 0 25M0 0Q90 -80 90 -10Q70 30 0 25" fill="#527e5f" opacity=".6"/><path d="M0 40Q-90 -40-90 30Q-70 70 0 65M0 40Q90 -40 90 30Q70 70 0 65" fill="#527e5f" opacity=".6"/><path d="M0 80Q-90 0-90 70Q-70 110 0 105M0 80Q90 0 90 70Q70 110 0 105" fill="#527e5f" opacity=".6"/><path d="M0 120Q-90 40-90 110Q-70 150 0 145M0 120Q90 40 90 110Q70 150 0 145" fill="#527e5f" opacity=".6"/></g><g transform="translate(940 500) rotate(40) scale(1.4)"><path d="M0 150V-100" stroke="#4c7a53" stroke-width="4"/><path d="M0 -80Q-90 -160-90 -90Q-70 -50 0 -55M0 -80Q90 -160 90 -90Q70 -50 0 -55" fill="#527e5f" opacity=".6"/><path d="M0 -40Q-90 -120-90 -50Q-70 -10 0 -15M0 -40Q90 -120 90 -50Q70 -10 0 -15" fill="#527e5f" opacity=".6"/><path d="M0 0Q-90 -80-90 -10Q-70 30 0 25M0 0Q90 -80 90 -10Q70 30 0 25" fill="#527e5f" opacity=".6"/><path d="M0 40Q-90 -40-90 30Q-70 70 0 65M0 40Q90 -40 90 30Q70 70 0 65" fill="#527e5f" opacity=".6"/><path d="M0 80Q-90 0-90 70Q-70 110 0 105M0 80Q90 0 90 70Q70 110 0 105" fill="#527e5f" opacity=".6"/><path d="M0 120Q-90 40-90 110Q-70 150 0 145M0 120Q90 40 90 110Q70 150 0 145" fill="#527e5f" opacity=".6"/></g></svg>